<?xml version="1.0" standalone="no"?>
<!DOCTYPE svg PUBLIC "-//W3C//DTD SVG 20010904//EN"
 "http://www.w3.org/TR/2001/REC-SVG-20010904/DTD/svg10.dtd">
<svg version="1.0" xmlns="http://www.w3.org/2000/svg"
 width="20.000000pt" height="20.000000pt" viewBox="0 0 20.000000 20.000000"
 preserveAspectRatio="xMidYMid meet">

<g transform="translate(0.000000,20.000000) scale(0.100000,-0.100000)"
fill="#000000" stroke="none">
<path d="M57 142 c-22 -24 -21 -65 1 -85 40 -36 102 -9 102 45 0 51 -69 78
-103 40z m63 -7 c0 -8 7 -15 15 -15 8 0 15 -9 15 -20 0 -11 -7 -20 -15 -20 -8
0 -15 -7 -15 -15 0 -8 -9 -15 -20 -15 -11 0 -20 7 -20 15 0 8 -7 15 -15 15 -8
0 -15 9 -15 20 0 11 7 20 15 20 8 0 15 7 15 15 0 8 9 15 20 15 11 0 20 -7 20
-15z"/>
<path d="M90 100 c0 -5 5 -10 10 -10 6 0 10 5 10 10 0 6 -4 10 -10 10 -5 0
-10 -4 -10 -10z"/>
</g>
</svg>
