<?xml version="1.0" standalone="no"?>
<!DOCTYPE svg PUBLIC "-//W3C//DTD SVG 20010904//EN"
 "http://www.w3.org/TR/2001/REC-SVG-20010904/DTD/svg10.dtd">
<svg version="1.0" xmlns="http://www.w3.org/2000/svg"
 width="512.000000pt" height="512.000000pt" viewBox="0 0 512.000000 512.000000"
 preserveAspectRatio="xMidYMid meet">

<g transform="translate(0.000000,512.000000) scale(0.100000,-0.100000)"
fill="#000000" stroke="none">
<path d="M2370 4599 c-647 -61 -1229 -429 -1569 -992 -381 -631 -384 -1441 -7
-2081 425 -722 1251 -1117 2071 -990 439 68 826 264 1140 579 786 786 805
2042 42 2852 -428 453 -1058 691 -1677 632z m388 -220 c301 -33 614 -152 862
-327 123 -87 345 -309 432 -432 471 -667 446 -1561 -62 -2200 -214 -269 -509
-477 -833 -589 -558 -192 -1174 -104 -1657 237 -123 87 -345 309 -432 432
-448 634 -448 1486 0 2120 87 123 309 345 432 432 242 171 563 294 850 327
110 12 297 13 408 0z"/>
<path d="M2299 4265 c-479 -75 -905 -348 -1177 -756 -115 -172 -206 -390 -254
-611 -20 -90 -22 -132 -22 -338 0 -206 2 -248 22 -338 48 -221 139 -439 254
-611 255 -383 640 -643 1099 -743 91 -19 133 -22 339 -22 208 -1 247 2 339 22
694 153 1202 661 1353 1353 20 92 22 132 22 339 0 206 -2 248 -22 338 -156
716 -699 1240 -1410 1363 -136 23 -407 25 -543 4z m530 -490 c16 -8 31 -25 35
-37 3 -13 6 -213 6 -445 l0 -423 425 0 c459 0 475 -2 489 -52 3 -13 6 -135 6
-271 l0 -248 -25 -24 -24 -25 -436 0 -435 0 0 -435 0 -436 -25 -24 -24 -25
-259 0 c-241 0 -262 1 -283 19 l-24 19 -3 441 -3 441 -433 0 c-412 0 -435 1
-457 19 -24 19 -24 20 -27 272 -3 270 1 298 44 318 17 8 155 11 449 11 l425 0
0 425 c0 443 2 463 44 483 12 6 119 11 264 11 194 1 249 -2 271 -14z"/>
<path d="M2360 3240 c0 -427 -1 -441 -20 -460 -19 -19 -33 -20 -460 -20 l-440
0 0 -200 0 -200 440 0 c427 0 441 -1 460 -20 19 -19 20 -33 20 -460 l0 -440
200 0 200 0 0 440 c0 427 1 441 20 460 19 19 33 20 460 20 l440 0 0 200 0 200
-440 0 c-427 0 -441 1 -460 20 -19 19 -20 33 -20 460 l0 440 -200 0 -200 0 0
-440z"/>
</g>
</svg>
